<svg xmlns="http://www.w3.org/2000/svg" viewBox="0 0 512 512">
  <defs>
    <linearGradient id="sky" x1="0" x2="0" y1="0" y2="1">
      <stop offset="0" stop-color="#9be8ff"/>
      <stop offset=".58" stop-color="#d9f7bd"/>
      <stop offset="1" stop-color="#ffd58c"/>
    </linearGradient>
    <linearGradient id="leaf" x1="0" x2="1" y1="0" y2="1">
      <stop offset="0" stop-color="#b5ff7e"/>
      <stop offset="1" stop-color="#28a95a"/>
    </linearGradient>
    <linearGradient id="soil" x1="0" x2="0" y1="0" y2="1">
      <stop offset="0" stop-color="#b87945"/>
      <stop offset="1" stop-color="#65361f"/>
    </linearGradient>
  </defs>
  <rect width="512" height="512" rx="120" fill="url(#sky)"/>
  <circle cx="386" cy="104" r="56" fill="#fff07a"/>
  <path d="M36 316c80-70 154-100 230-94 74 5 136 36 210 92v138H36z" fill="#62c96b"/>
  <rect x="96" y="280" width="320" height="130" rx="42" fill="url(#soil)"/>
  <path d="M125 318h262M125 356h262" stroke="#e7b77a" stroke-width="14" stroke-linecap="round" opacity=".65"/>
  <path d="M256 292c-8-88 28-158 108-207-11 94-43 162-108 207z" fill="url(#leaf)"/>
  <path d="M251 294c-54-70-113-103-188-101 48 70 105 106 188 101z" fill="#7de079"/>
  <path d="M252 292c-2-55 20-100 67-135" stroke="#267f45" stroke-width="18" stroke-linecap="round" fill="none"/>
  <path d="M222 253c42-33 99-28 133 10 40 46 8 110-59 112-65 3-115-43-74-122z" fill="#ff8a3d"/>
  <path d="M240 245c30-25 72-25 101 0-14-38-58-54-97-35-16 8-28 20-36 36z" fill="#fff4c0" opacity=".34"/>
</svg>
