<svg xmlns="http://www.w3.org/2000/svg" viewBox="0 0 512 512">
  <defs>
    <linearGradient id="bg" x1="0" x2="1" y1="0" y2="1">
      <stop offset="0" stop-color="#a8ff78"/>
      <stop offset="1" stop-color="#1d8f53"/>
    </linearGradient>
    <linearGradient id="soil" x1="0" x2="1" y1="0" y2="1">
      <stop offset="0" stop-color="#b87342"/>
      <stop offset="1" stop-color="#65361f"/>
    </linearGradient>
  </defs>
  <rect width="512" height="512" rx="120" fill="#102017"/>
  <circle cx="382" cy="108" r="58" fill="#ffd166"/>
  <path d="M74 330c70-70 137-108 220-114 67-5 116 9 170 40v172H74z" fill="url(#bg)"/>
  <ellipse cx="256" cy="334" rx="156" ry="58" fill="url(#soil)"/>
  <path d="M256 318c-5-70 20-130 86-172-12 74-36 130-86 172z" fill="#55d37b"/>
  <path d="M252 318c-42-58-88-84-150-86 38 58 84 88 150 86z" fill="#7ee787"/>
  <circle cx="262" cy="252" r="52" fill="#ff6b3d"/>
  <path d="M234 220c18-22 45-28 76-19-12-20-36-32-65-23-18 6-30 20-35 36z" fill="#fff3d4" opacity=".35"/>
  <path d="M258 204c2-28 22-50 54-65" stroke="#55d37b" stroke-width="18" stroke-linecap="round" fill="none"/>
</svg>
